<svg width="37" height="41" viewBox="0 0 37 41" fill="none" xmlns="http://www.w3.org/2000/svg">
<path d="M14.013 40.4507C13.7799 40.3871 13.6406 40.3054 13.5014 40.157C13.2107 39.8543 13.241 39.4577 13.5922 38.8462C14.1765 37.8381 14.2976 37.4899 14.2673 36.9117C14.2461 36.4758 14.1371 36.1851 13.8525 35.7976C13.5498 35.3859 13.0352 35.065 12.3994 34.8925C11.6244 34.6836 10.7586 34.7017 9.03604 34.9681C7.5708 35.1952 6.97744 35.1498 6.50821 34.7744C6.19033 34.5231 6.0541 34.2022 6.08135 33.7814C6.10557 33.3848 6.23272 33.1578 6.67168 32.7188C7.28623 32.1043 7.51934 31.7531 7.60108 31.3141C7.71006 30.7359 7.53145 30.188 7.0834 29.7339C6.95322 29.6007 6.78369 29.4493 6.70801 29.3948C6.17217 29.0164 5.15801 28.6743 4.30127 28.5805C3.71094 28.5169 2.21846 28.4957 1.66748 28.5441C1.18311 28.5895 0.865236 28.5714 0.710841 28.4927C0.665431 28.4684 0.58672 28.3958 0.54131 28.3352C0.365724 28.1052 0.447463 27.8055 0.931838 26.873C1.17403 26.4068 1.46162 25.9255 1.69473 25.5955C1.76436 25.4986 1.87334 25.3442 1.93994 25.2504C2.42129 24.5632 3.18418 23.7216 3.92285 23.0586C4.09844 22.9012 4.24678 22.7649 4.25586 22.7558C4.29219 22.7104 5.10654 22.0747 5.28516 21.9536C5.39414 21.8779 5.53945 21.778 5.60606 21.7265C5.77256 21.6085 6.18731 21.3512 6.46582 21.1968C6.58994 21.1271 6.78067 21.0181 6.88965 20.9576C7.20449 20.776 8.09453 20.3521 8.23682 20.3158C8.2792 20.3067 8.3125 20.2795 8.3125 20.2583C8.3125 20.2341 8.23682 20.1099 8.14297 19.9798C7.90381 19.6498 7.41944 18.8233 7.16817 18.3208C6.90479 17.7971 6.68076 17.24 6.56875 16.8222C6.49004 16.5346 6.48096 16.462 6.48399 16.0351C6.48399 15.5235 6.52334 15.3267 6.79883 14.3852C6.99561 13.7162 7.49815 12.3085 7.7252 11.7969C7.77969 11.6727 7.87959 11.4336 7.94922 11.2671C8.01582 11.1006 8.08545 10.9431 8.10059 10.9129C8.11572 10.8856 8.20957 10.6828 8.30645 10.4588C8.62432 9.7534 9.51738 7.96424 9.61426 7.8492C9.6294 7.82801 9.72324 7.67059 9.82012 7.495C10.0653 7.06512 10.3983 6.49295 10.5467 6.25682C10.6133 6.14783 10.7313 5.95711 10.804 5.83299C11.0583 5.40916 12.0694 4.08621 12.46 3.67449C12.6598 3.46258 13.0806 3.10535 13.5014 2.79656C13.9222 2.48475 14.6518 1.99734 14.8516 1.89441C14.9272 1.85506 15.0635 1.77937 15.1543 1.72791C15.5055 1.52205 16.4106 1.14969 17.0161 0.958964C17.9516 0.668339 19.0717 0.780351 20.1494 1.27078C20.2069 1.29803 20.3583 1.3616 20.4824 1.41609C21.2271 1.72791 22.2988 2.35154 23.2191 3.00545C23.6097 3.28094 24.0244 3.66541 24.4785 4.16795C25.199 4.96717 25.6077 5.5908 26.8308 7.75535C27.1486 8.31844 27.7783 9.60506 28.1779 10.5102C28.8288 11.9846 29.4615 13.695 29.7158 14.6668C29.7491 14.797 29.7945 14.9695 29.8188 15.0573C30.0549 15.908 29.9731 16.9131 29.5887 17.897C29.4857 18.1634 29.4494 18.233 29.2103 18.6023C29.0922 18.784 29.0316 18.8506 28.9862 18.8506C28.9499 18.8506 28.7985 18.8052 28.6441 18.7476C28.3444 18.6356 27.8358 18.5024 27.5543 18.4661C27.4362 18.451 27.3636 18.4237 27.3424 18.3904C27.3182 18.3511 27.3424 18.2148 27.4453 17.8152C27.5755 17.3157 27.5815 17.2703 27.5815 16.8677C27.5815 16.356 27.5392 16.1926 27.2455 15.5841C26.6522 14.361 25.3837 12.7929 24.2242 11.8544C23.6006 11.3488 22.7529 10.7464 22.2686 10.4648C22.1444 10.3922 21.9719 10.2892 21.8871 10.2347C21.8054 10.1803 21.5662 10.044 21.3573 9.93201C21.1515 9.82 20.8457 9.65652 20.6792 9.5657C20.0495 9.22664 19.3532 8.97234 18.6842 8.84217C18.2906 8.76346 18.2513 8.76346 18.0182 8.79676C16.8708 8.97537 15.4752 9.61414 13.6739 10.7827C13.2895 11.0309 12.3116 11.7545 11.9816 12.033C11.3065 12.6021 10.4195 13.6042 9.93516 14.3398C9.85342 14.4639 9.75957 14.6032 9.7293 14.6486C9.59004 14.8545 9.26914 15.5477 9.16318 15.8747C8.93916 16.5558 8.89678 17.0432 9.0209 17.5458C9.25401 18.4873 9.82012 19.4167 10.9523 20.7275C11.5518 21.4238 12.796 22.6469 13.2804 23.0192C13.3409 23.0646 13.5589 23.2463 13.7647 23.4219C14.2067 23.7942 14.2733 23.8487 14.8516 24.2786C15.8385 25.0142 17.3491 25.9103 18.003 26.1495C18.2997 26.2585 18.3572 26.2857 18.445 26.3675C18.5146 26.428 18.5147 26.4341 18.4935 27.0123C18.4753 27.6117 18.4904 27.8448 18.6085 28.8408C18.6781 29.413 18.6933 29.4735 18.8355 29.8792C18.9597 30.2334 18.9657 30.3363 18.8719 30.3908C18.8174 30.4211 18.2694 30.4332 16.3501 30.4453L13.898 30.4604L13.7072 30.5634C13.4045 30.7268 13.2925 30.9357 13.3137 31.302C13.3258 31.5715 13.3984 31.7289 13.571 31.856C13.795 32.0256 13.8102 32.0256 17.1221 32.0165C18.778 32.0104 20.1524 32.0165 20.1736 32.0286C20.213 32.0558 20.4431 32.3979 20.6943 32.8127C20.7821 32.961 20.9214 33.1548 21.0001 33.2486C21.1515 33.4181 21.1787 33.4908 21.1121 33.5574C21.0849 33.5847 20.5611 33.5937 18.9476 33.5937C16.9192 33.5937 16.8133 33.5968 16.668 33.6513C16.3229 33.7814 16.1866 33.9722 16.1624 34.3475C16.1503 34.5473 16.1594 34.5958 16.2199 34.7138C16.3017 34.8743 16.5075 35.0226 16.7194 35.0802C16.8314 35.1104 17.6276 35.1225 20.2705 35.1286C24.0153 35.1377 23.7731 35.1225 23.6914 35.3223C23.6521 35.4132 23.0314 36.0762 22.3896 36.7119C21.3089 37.7805 20.5097 38.3618 19.2715 38.9824C18.6024 39.3184 18.1211 39.5273 17.4278 39.7725C15.8354 40.3447 14.5397 40.599 14.013 40.4507Z" fill="#4F2D9F"/>
<path d="M35.3285 36.9571C35.274 36.945 35.1802 36.8996 35.1166 36.8633C34.9985 36.7906 34.1357 35.9732 32.8794 34.7441C32.3042 34.181 31.8047 33.7088 31.3354 33.2789C31.2688 33.2183 31.2053 33.1699 31.1932 33.1699C31.1811 33.1699 31.0388 33.2547 30.8753 33.3606C30.0216 33.9116 29.18 34.2295 28.0659 34.4142C27.7117 34.4717 27.5937 34.4777 26.855 34.4626C26.2041 34.4505 25.9649 34.4353 25.6743 34.3839C23.976 34.0811 22.3866 33.1396 21.3028 31.7925C20.4158 30.6905 19.9617 29.6764 19.7104 28.2565C19.6438 27.8751 19.6348 27.7267 19.6348 27.1637C19.6348 26.7398 19.6499 26.3917 19.6832 26.1707C19.9103 24.5178 20.6217 23.0525 21.763 21.8961C22.3321 21.3209 22.8226 20.9455 23.4492 20.6095C24.2 20.2038 24.7752 19.9889 25.4775 19.8496C26.1314 19.7194 26.525 19.6861 27.1547 19.7073C29.0226 19.7709 30.6392 20.4672 32.056 21.8174C32.5222 22.2594 33.1367 23.0919 33.4213 23.6641C33.4606 23.7397 33.5484 23.9123 33.6181 24.0485C33.8633 24.5329 34.0813 25.2776 34.2266 26.1101C34.3022 26.5461 34.3113 27.6511 34.2417 28.1082C34.0419 29.4402 33.609 30.4937 32.8582 31.4928C32.7946 31.5775 32.7432 31.6623 32.7432 31.6805C32.7432 31.6956 32.84 31.7985 32.9581 31.9045C33.0762 32.0074 33.2851 32.2042 33.4213 32.3374C33.7422 32.6583 35.5616 34.4444 36.0309 34.9046C36.2488 35.1165 36.4335 35.3254 36.4819 35.4162C36.5606 35.5615 36.5637 35.5857 36.5516 35.8764C36.5364 36.2366 36.4638 36.4243 36.2549 36.6604C36.0611 36.8784 35.9067 36.9571 35.6434 36.9692C35.5223 36.9753 35.38 36.9723 35.3285 36.9571ZM27.8268 32.4282C28.1477 32.3707 28.5896 32.2526 28.8591 32.1527C29.1558 32.0407 29.8793 31.6441 30.1366 31.4534C30.8147 30.9509 31.508 30.0972 31.8713 29.3252C32.0711 28.8983 32.2588 28.1809 32.3193 27.6147C32.4162 26.7156 32.168 25.5077 31.726 24.7176C31.6352 24.5571 31.5625 24.4179 31.5625 24.4058C31.5625 24.3936 31.4656 24.2453 31.3445 24.0758C30.9056 23.4552 30.0579 22.7256 29.407 22.4017C28.8379 22.1201 28.1174 21.9021 27.4604 21.8143C27.1153 21.7689 26.4796 21.7962 26.0527 21.8749C25.6622 21.9445 24.9962 22.1655 24.6087 22.3532C24.0153 22.6408 23.3281 23.1767 22.8982 23.6852C22.5743 24.0697 22.4744 24.2241 22.1263 24.875C21.9022 25.2928 21.6813 26.0799 21.6298 26.6309C21.5874 27.085 21.6086 27.6753 21.6782 28.0083C21.7357 28.2868 21.8659 28.7651 21.9053 28.8559C21.9204 28.8892 21.9628 28.9892 21.9961 29.08C22.202 29.6158 22.7378 30.4665 23.0708 30.7874C24.0365 31.7168 24.9266 32.2012 26.0527 32.4131C26.4402 32.4857 27.4423 32.4948 27.8268 32.4282Z" fill="#4F2D9F"/>
<path d="M14.6397 17.1219C14.013 17.0009 13.4105 16.5044 13.1381 15.8898C12.9988 15.575 12.8565 15.0845 12.8142 14.7636C12.7627 14.3973 12.7778 13.9644 12.8414 13.8645C12.905 13.7676 13.0442 13.7767 13.2471 13.8918C13.3379 13.9432 13.4832 14.0219 13.5649 14.0674C13.6497 14.1128 13.8253 14.2096 13.9585 14.2853C14.0917 14.361 14.3309 14.4882 14.4883 14.5699C14.6457 14.6486 14.9605 14.8181 15.1846 14.9423C15.4086 15.0664 15.8869 15.3146 16.2441 15.4963C16.6014 15.6749 16.9192 15.8414 16.9525 15.8656C17.0464 15.9413 16.9889 16.0472 16.674 16.35C16.0928 16.9161 15.8657 17.0614 15.457 17.128C15.2542 17.1613 14.8243 17.1583 14.6397 17.1219Z" fill="#4F2D9F"/>
<path d="M20.8941 17.1189C20.5732 17.0674 20.101 16.7647 19.6317 16.3136C19.3593 16.0503 19.332 15.9655 19.4773 15.8535C19.6499 15.7172 22.202 14.2217 22.6318 14.0068C23.089 13.7767 23.3735 13.692 23.4644 13.7586C23.4825 13.7707 23.5219 13.8252 23.5522 13.8827C23.6006 13.9735 23.6097 14.0462 23.6066 14.3731C23.6036 14.9725 23.5067 15.3661 23.2282 15.9292C23.098 16.1925 23.0375 16.2713 22.7862 16.5195C22.4108 16.8919 22.1323 17.0402 21.6782 17.1098C21.3422 17.1583 21.1605 17.1613 20.8941 17.1189Z" fill="#4F2D9F"/>
</svg>
